<svg width="25" height="25" viewBox="0 0 25 25" fill="none" xmlns="http://www.w3.org/2000/svg">
<path d="M23.8672 8.26446H20.7933C20.7933 3.73875 17.1045 0.0358887 12.596 0.0358887C8.08747 0.0358887 4.39869 3.73875 4.39869 8.26446H1.32471C0.949 8.26446 0.641602 8.57303 0.641602 8.95017V23.3502C0.641602 23.7273 0.949 24.0359 1.32471 24.0359H23.8672C24.2429 24.0359 24.5503 23.7273 24.5503 23.3502V8.95017C24.5503 8.57303 24.2429 8.26446 23.8672 8.26446ZM12.596 1.40732C16.3531 1.40732 19.427 4.49303 19.427 8.26446H5.7649C5.7649 4.49303 8.83889 1.40732 12.596 1.40732ZM23.1841 22.6645H2.00782V9.63589H23.1841V22.6645ZM12.596 13.0645C11.2639 13.0645 10.2051 14.1273 10.2051 15.4645C10.2051 16.5616 10.9224 17.453 11.9129 17.7616V19.2359C11.9129 19.613 12.2203 19.9216 12.596 19.9216C12.9717 19.9216 13.2791 19.613 13.2791 19.2359V17.7616C14.2696 17.453 14.9868 16.5616 14.9868 15.4645C14.9868 14.1273 13.928 13.0645 12.596 13.0645ZM12.596 16.493C12.0153 16.493 11.5713 16.013 11.5713 15.4645C11.5713 14.8816 12.0153 14.4359 12.596 14.4359C13.1766 14.4359 13.6206 14.8816 13.6206 15.4645C13.6206 16.013 13.1766 16.493 12.596 16.493Z" fill="#8D8D8D"/>
</svg>
