<svg width="25" height="14" viewBox="0 0 25 14" fill="none" xmlns="http://www.w3.org/2000/svg">
<path d="M12.3965 2.47825C10.0498 2.47825 8.12982 4.39825 8.12982 6.74491C8.12982 9.09158 10.0498 11.0116 12.3965 11.0116C14.7432 11.0116 16.6632 9.09158 16.6632 6.74491C16.6632 4.39825 14.7432 2.47825 12.3965 2.47825ZM12.3965 9.94491C10.6365 9.94491 9.19648 8.50491 9.19648 6.74491C9.19648 4.98491 10.6365 3.54491 12.3965 3.54491C14.1565 3.54491 15.5965 4.98491 15.5965 6.74491C15.5965 8.50491 14.1565 9.94491 12.3965 9.94491ZM24.2365 6.37158L21.9432 4.05158C19.4098 1.49158 16.0232 0.0782471 12.3965 0.0782471C8.76982 0.0782471 5.38315 1.49158 2.84982 4.05158L0.556484 6.37158C0.343151 6.58491 0.343151 6.90491 0.556484 7.11825L2.84982 9.43825C5.38315 11.9982 8.76982 13.4116 12.3965 13.4116C16.0232 13.4116 19.4098 11.9982 21.9432 9.43825L24.2365 7.11825C24.4498 6.90491 24.4498 6.58491 24.2365 6.37158ZM21.1965 8.69158C18.8498 11.0382 15.7298 12.3449 12.3965 12.3449C9.06315 12.3449 5.94315 11.0382 3.59648 8.69158L1.67648 6.74491L3.59648 4.79825C5.94315 2.45158 9.06315 1.14491 12.3965 1.14491C15.7298 1.14491 18.8498 2.45158 21.1965 4.79825L23.1165 6.74491L21.1965 8.69158Z" fill="#8D8D8D"/>
</svg>
