<svg width="37" height="30" viewBox="0 0 37 30" fill="none" xmlns="http://www.w3.org/2000/svg">
<path d="M32.7145 2.69364H29.1145V0.900484C29.1145 0.407366 28.7095 0.00390625 28.2145 0.00390625C27.7195 0.00390625 27.3145 0.407366 27.3145 0.900484V2.69364H9.31445V0.900484C9.31445 0.407366 8.90945 0.00390625 8.41445 0.00390625C7.91945 0.00390625 7.51445 0.407366 7.51445 0.900484V2.69364H3.91445C1.93445 2.69364 0.314453 4.30748 0.314453 6.27995V26.0047C0.314453 27.9771 1.93445 29.591 3.91445 29.591H32.7145C34.6945 29.591 36.3145 27.9771 36.3145 26.0047V6.27995C36.3145 4.30748 34.6945 2.69364 32.7145 2.69364ZM34.5145 26.0047C34.5145 26.9909 33.7045 27.7978 32.7145 27.7978H3.91445C2.92445 27.7978 2.11445 26.9909 2.11445 26.0047V12.556H34.5145V26.0047ZM34.5145 10.7628H2.11445V6.27995C2.11445 5.29372 2.92445 4.4868 3.91445 4.4868H7.51445V7.17653C7.51445 7.66965 7.91945 8.07311 8.41445 8.07311C8.90945 8.07311 9.31445 7.66965 9.31445 7.17653V4.4868H27.3145V7.17653C27.3145 7.66965 27.7195 8.07311 28.2145 8.07311C28.7095 8.07311 29.1145 7.66965 29.1145 7.17653V4.4868H32.7145C33.7045 4.4868 34.5145 5.29372 34.5145 6.27995V10.7628Z" fill="black"/>
</svg>
