<svg width="36" height="55" viewBox="0 0 36 55" fill="none" xmlns="http://www.w3.org/2000/svg">
<path d="M18 0.466797C8.1 0.466797 0 8.43823 0 18.2739C0 39.2311 16.4571 53.5668 17.1643 54.2097C17.6143 54.5954 18.3857 54.5954 18.8357 54.2097C19.5429 53.5668 36 39.1668 36 18.2739C36 8.43823 27.9 0.466797 18 0.466797ZM18 51.4454C14.6571 48.2311 2.57143 35.374 2.57143 18.2739C2.57143 9.85252 9.51429 3.03823 18 3.03823C26.4857 3.03823 33.4286 9.85252 33.4286 18.2739C33.4286 35.374 21.3429 48.2311 18 51.4454ZM18 8.18109C12.3429 8.18109 7.71429 12.8097 7.71429 18.4668C7.71429 24.1239 12.3429 28.7525 18 28.7525C23.6571 28.7525 28.2857 24.1239 28.2857 18.4668C28.2857 12.8097 23.6571 8.18109 18 8.18109ZM18 26.1811C13.7571 26.1811 10.2857 22.7097 10.2857 18.4668C10.2857 14.2239 13.7571 10.7525 18 10.7525C22.2429 10.7525 25.7143 14.2239 25.7143 18.4668C25.7143 22.7097 22.2429 26.1811 18 26.1811Z" fill="black"/>
</svg>
