<svg width="37" height="25" viewBox="0 0 37 25" fill="none" xmlns="http://www.w3.org/2000/svg">
<path d="M35.4145 0.242188H1.21445C0.719453 0.242188 0.314453 0.647188 0.314453 1.14219V23.6422C0.314453 24.1372 0.719453 24.5422 1.21445 24.5422H35.4145C35.9095 24.5422 36.3145 24.1372 36.3145 23.6422V1.14219C36.3145 0.647188 35.9095 0.242188 35.4145 0.242188ZM33.2545 2.04219L18.3145 16.9822L3.37445 2.04219H33.2545ZM2.11445 3.30219L11.2045 12.3922L2.11445 21.4822V3.30219ZM3.41945 22.7422L12.4645 13.6972L17.6845 18.9172C18.0445 19.2772 18.5845 19.2772 18.9445 18.9172L24.1645 13.6972L33.2095 22.7422H3.41945ZM34.5145 21.4822L25.4245 12.3922L34.5145 3.30219V21.4822Z" fill="black"/>
</svg>
