<svg width="25" height="17" viewBox="0 0 25 17" fill="none" xmlns="http://www.w3.org/2000/svg">
<path d="M24.1642 0.696777H1.36416C1.03416 0.696777 0.76416 0.966777 0.76416 1.29678V16.2968C0.76416 16.6268 1.03416 16.8968 1.36416 16.8968H24.1642C24.4942 16.8968 24.7642 16.6268 24.7642 16.2968V1.29678C24.7642 0.966777 24.4942 0.696777 24.1642 0.696777ZM22.7242 1.89678L12.7642 11.8568L2.80416 1.89678H22.7242ZM1.96416 2.73678L8.02416 8.79678L1.96416 14.8568V2.73678ZM2.83416 15.6968L8.86416 9.66678L12.3442 13.1468C12.5842 13.3868 12.9442 13.3868 13.1842 13.1468L16.6642 9.66678L22.6942 15.6968H2.83416ZM23.5642 14.8568L17.5042 8.79678L23.5642 2.73678V14.8568Z" fill="#8D8D8D"/>
</svg>
