<svg width="23" height="25" viewBox="0 0 23 25" fill="none" xmlns="http://www.w3.org/2000/svg">
<path d="M14.7031 13.0285C16.7031 11.7977 17.9954 9.36695 17.9954 7.12079C17.9954 3.92079 15.38 0.351562 11.8416 0.351562C8.30311 0.351562 5.68773 3.92079 5.68773 7.12079C5.68773 9.36695 6.98003 11.7977 8.98003 13.0285C4.24157 14.29 0.764648 18.6285 0.764648 23.7362C0.764648 24.0746 1.04157 24.3516 1.38003 24.3516H22.3031C22.6416 24.3516 22.9185 24.0746 22.9185 23.7362C22.9185 18.6285 19.4416 14.29 14.7031 13.0285ZM6.91849 7.12079C6.91849 3.95156 9.53388 1.58233 11.8416 1.58233C14.1493 1.58233 16.7646 3.95156 16.7646 7.12079C16.7646 10.29 14.1493 12.6593 11.8416 12.6593C9.53388 12.6593 6.91849 10.29 6.91849 7.12079ZM2.02619 23.1208C2.33388 17.9823 6.64157 13.89 11.8416 13.89C17.0416 13.89 21.3493 17.9823 21.657 23.1208H2.02619Z" fill="black"/>
</svg>
