<svg width="37" height="37" viewBox="0 0 37 37" fill="none" xmlns="http://www.w3.org/2000/svg">
<path d="M34.6662 26.472C33.169 24.9379 28.9135 22.0641 26.1243 22.0641C25.4783 22.0641 24.9143 22.2072 24.4529 22.5038C23.089 23.3732 22.0021 24.0482 21.4791 24.0482C21.192 24.0482 20.8843 23.7925 20.2075 23.2095L20.0947 23.1072C18.2182 21.4811 17.8183 21.0618 17.0902 20.305L16.9056 20.1107C16.7723 19.9777 16.6595 19.855 16.5467 19.7425C15.911 19.0879 15.4495 18.6175 13.8191 16.7766L13.7473 16.6947C12.968 15.8152 12.4553 15.2425 12.4245 14.8232C12.3937 14.4141 12.7526 13.7493 13.6653 12.5118C14.7727 11.0186 14.8138 9.1777 13.7986 7.0402C12.9885 5.3527 11.6657 3.73679 10.4967 2.3152L10.3941 2.19247C9.38921 0.965199 8.22021 0.351562 6.91791 0.351562C5.47204 0.351562 4.27228 1.12884 3.63651 1.53793C3.58524 1.56861 3.53397 1.60952 3.4827 1.6402C2.05734 2.5402 1.02165 3.7777 0.631989 5.03565C0.0474911 6.9277 -0.342174 9.38225 2.45726 14.4857C4.87729 18.9038 7.07172 21.8697 10.5582 25.4391C13.8396 28.7936 15.2957 29.8777 18.5566 32.23C22.1866 34.8482 25.6731 36.3516 28.1137 36.3516C30.3799 36.3516 32.1641 36.3516 34.7072 33.2936C37.3733 30.0822 36.2659 28.1186 34.6662 26.472ZM33.4869 32.1891C31.4361 34.6641 30.2568 34.6641 28.1239 34.6641C26.0423 34.6641 22.8122 33.2322 19.4897 30.8493C16.3109 28.5584 14.8958 27.505 11.7067 24.2425C8.33301 20.7959 6.21036 17.922 3.87236 13.6572C1.40107 9.14702 1.67793 7.17315 2.1804 5.54702C2.44701 4.6777 3.24685 3.74702 4.33381 3.07202C4.38508 3.04134 4.43635 3.00043 4.49788 2.96974C5.04136 2.62202 5.94374 2.03906 6.92816 2.03906C7.74851 2.03906 8.47657 2.44815 9.17387 3.29702L9.27641 3.41974C11.8913 6.61065 13.9319 9.43338 12.3937 11.5197C11.3068 12.9822 10.7325 13.9743 10.8248 14.997C10.9068 15.9891 11.5734 16.7357 12.5783 17.8607L12.6501 17.9425C14.301 19.8038 14.7727 20.2947 15.429 20.9595C15.5418 21.072 15.6546 21.1947 15.7879 21.3277L15.9725 21.522C16.7313 22.3095 17.1518 22.7391 19.0796 24.4266L19.1924 24.5288C20.0127 25.2447 20.6177 25.7663 21.4996 25.7663C22.4122 25.7663 23.4172 25.1936 25.3245 23.9766C25.5193 23.8538 25.7962 23.7822 26.1448 23.7822C28.37 23.7822 32.2051 26.3186 33.5485 27.6993C34.779 28.947 35.3942 29.8879 33.4869 32.1891Z" fill="black"/>
</svg>
