<svg width="15" height="25" viewBox="0 0 15 25" fill="none" xmlns="http://www.w3.org/2000/svg">
<path d="M13.723 0.669816C12.5701 0.547817 11.4113 0.488526 10.252 0.492362C6.4083 0.492362 4.01992 2.93982 4.01992 6.88071V9.55591H0.791151C0.475724 9.5557 0.219866 9.81128 0.219727 10.1267V14.528C0.219517 14.8434 0.475096 15.0992 0.790523 15.0994H4.01992V23.9208C4.01971 24.2362 4.27529 24.492 4.59072 24.4922H9.13707C9.4525 24.4924 9.70829 24.2368 9.7085 23.9214V15.0994H12.9273C13.2144 15.0993 13.457 14.8864 13.4943 14.6016L14.0623 10.201C14.1031 9.88822 13.8826 9.60153 13.5698 9.56073C13.5451 9.55752 13.5203 9.55591 13.4954 9.55591H9.7085V7.31709C9.7085 6.20884 9.93171 5.74567 11.3179 5.74567L13.6482 5.74456C13.9636 5.7447 14.2194 5.48919 14.2196 5.17376V1.23678C14.2197 0.949948 14.0073 0.707484 13.723 0.669816ZM13.0768 4.60171L11.3179 4.60282C8.85136 4.60282 8.56565 6.15192 8.56565 7.31709V10.1274C8.56551 10.4428 8.82102 10.6986 9.13645 10.6988H12.8458L12.425 13.9565H9.13707C8.82165 13.9564 8.56586 14.2119 8.56565 14.5273V23.3493H5.16277V14.528C5.16298 14.2125 4.9074 13.9568 4.59204 13.9565H1.36258V10.6988H4.59135C4.90677 10.699 5.16256 10.4434 5.16277 10.128V6.88071C5.16277 3.59613 7.06559 1.63521 10.252 1.63521C11.4049 1.63521 12.4462 1.69771 13.0768 1.7524V4.60171Z" fill="black"/>
</svg>
