<svg width="26" height="27" viewBox="0 0 26 27" fill="none" xmlns="http://www.w3.org/2000/svg">
<path d="M18.9569 1.49219H7.48258C4.0237 1.49219 1.21973 4.29616 1.21973 7.75504V19.2293C1.21973 22.6882 4.0237 25.4922 7.48258 25.4922H18.9569C22.4158 25.4922 25.2197 22.6882 25.2197 19.2293V7.75504C25.2197 4.29616 22.4158 1.49219 18.9569 1.49219Z" stroke="#959595" stroke-width="1.5" stroke-linecap="round" stroke-linejoin="round"/>
<path d="M13.2193 19.778C16.6908 19.778 19.505 16.9638 19.505 13.4923C19.505 10.0208 16.6908 7.20654 13.2193 7.20654C9.7478 7.20654 6.93359 10.0208 6.93359 13.4923C6.93359 16.9638 9.7478 19.778 13.2193 19.778Z" stroke="#959595" stroke-width="1.5" stroke-linecap="round" stroke-linejoin="round"/>
<path d="M20.0773 6.06351C20.3929 6.06351 20.6487 5.80767 20.6487 5.49208C20.6487 5.17649 20.3929 4.92065 20.0773 4.92065C19.7617 4.92065 19.5059 5.17649 19.5059 5.49208C19.5059 5.80767 19.7617 6.06351 20.0773 6.06351Z" stroke="#959595" stroke-linecap="round" stroke-linejoin="round"/>
</svg>
