<svg width="22" height="26" viewBox="0 0 22 26" fill="none" xmlns="http://www.w3.org/2000/svg">
<mask id="path-1-outside-1_1_195" maskUnits="userSpaceOnUse" x="-0.291016" y="-0.156982" width="23" height="26" fill="black">
<rect fill="white" x="-0.291016" y="-0.156982" width="23" height="26"/>
<path d="M20.5998 10.8059H20.057C19.0778 10.807 18.1137 10.5637 17.2522 10.0982C16.3907 9.6327 15.659 8.95964 15.1232 8.13998V17.2115C15.1208 18.5375 14.7254 19.833 13.987 20.9344C13.2485 22.0358 12.2002 22.8936 10.9744 23.3994C9.74865 23.9052 8.40047 24.0363 7.10021 23.7762C5.79995 23.516 4.60597 22.8762 3.66917 21.9378C2.73237 20.9993 2.0948 19.8042 1.83698 18.5035C1.57916 17.2027 1.71269 15.8548 2.22069 14.6299C2.72869 13.4051 3.58833 12.3583 4.69104 11.6218C5.79376 10.8854 7.09006 10.4923 8.41608 10.4923H8.82622V13.7976H8.41608C7.94989 13.7699 7.48295 13.8378 7.04396 13.9971C6.60497 14.1565 6.20319 14.4039 5.8633 14.7242C5.52342 15.0445 5.25264 15.4309 5.06754 15.8596C4.88244 16.2884 4.78694 16.7505 4.78694 17.2175C4.78694 17.6845 4.88244 18.1466 5.06754 18.5753C5.25264 19.0041 5.52342 19.3905 5.8633 19.7108C6.20319 20.0311 6.60497 20.2785 7.04396 20.4378C7.48295 20.5972 7.94989 20.6651 8.41608 20.6374C9.33286 20.6506 10.2184 20.3047 10.8835 19.6735C11.5485 19.0423 11.9401 18.1759 11.9747 17.2597V1.84302H15.1352C15.2788 3.21741 15.9014 4.49747 16.8939 5.45905C17.8863 6.42063 19.1854 7.00243 20.5636 7.10255V10.7818"/>
</mask>
<path d="M20.5998 12.1059C21.3178 12.1059 21.8998 11.5239 21.8998 10.8059C21.8998 10.088 21.3178 9.50593 20.5998 9.50593V12.1059ZM20.057 10.8059V9.50593L20.0556 9.50593L20.057 10.8059ZM15.1232 8.13998L16.2113 7.42871L13.8232 3.77509V8.13998H15.1232ZM15.1232 17.2115L16.4232 17.2138V17.2115H15.1232ZM8.41608 10.4923V9.19229L8.41608 9.19229L8.41608 10.4923ZM8.82622 10.4923H10.1262V9.19229H8.82622V10.4923ZM8.82622 13.7976V15.0976H10.1262V13.7976H8.82622ZM8.41608 13.7976L8.33897 15.0953L8.37749 15.0976H8.41608V13.7976ZM8.41608 20.6374L8.43488 19.3375L8.38689 19.3368L8.33897 19.3397L8.41608 20.6374ZM11.9747 17.2597L13.2738 17.3087L13.2747 17.2842V17.2597H11.9747ZM11.9747 1.84302V0.543018H10.6747V1.84302H11.9747ZM15.1352 1.84302L16.4282 1.70791L16.3065 0.543018H15.1352V1.84302ZM20.5636 7.10255H21.8636V5.89356L20.6578 5.80596L20.5636 7.10255ZM19.2636 10.7818C19.2636 11.4998 19.8457 12.0818 20.5636 12.0818C21.2816 12.0818 21.8636 11.4998 21.8636 10.7818H19.2636ZM20.5998 9.50593H20.057V12.1059H20.5998V9.50593ZM20.0556 9.50593C19.2926 9.50675 18.5415 9.31721 17.8702 8.9545L16.6342 11.2419C17.686 11.8102 18.8629 12.1072 20.0584 12.1059L20.0556 9.50593ZM17.8702 8.9545C17.199 8.59179 16.6288 8.06736 16.2113 7.42871L14.035 8.85125C14.6891 9.85192 15.5825 10.6736 16.6342 11.2419L17.8702 8.9545ZM13.8232 8.13998V17.2115H16.4232V8.13998H13.8232ZM13.8232 17.2091C13.8213 18.2781 13.5025 19.3226 12.9072 20.2105L15.0667 21.6584C15.9483 20.3435 16.4203 18.7968 16.4232 17.2138L13.8232 17.2091ZM12.9072 20.2105C12.3119 21.0984 11.4667 21.7899 10.4785 22.1977L11.4703 24.6011C12.9336 23.9973 14.1852 22.9732 15.0667 21.6584L12.9072 20.2105ZM10.4785 22.1977C9.49036 22.6055 8.40349 22.7111 7.35526 22.5014L6.84516 25.0509C8.39744 25.3615 10.0069 25.205 11.4703 24.6011L10.4785 22.1977ZM7.35526 22.5014C6.30702 22.2917 5.34445 21.7759 4.58923 21.0194L2.7491 22.8562C3.86748 23.9766 5.29289 24.7403 6.84516 25.0509L7.35526 22.5014ZM4.58923 21.0194C3.83402 20.2628 3.32002 19.2993 3.11217 18.2507L0.56179 18.7562C0.869578 20.309 1.63072 21.7358 2.7491 22.8562L4.58923 21.0194ZM3.11217 18.2507C2.90433 17.2021 3.01197 16.1154 3.42151 15.1279L1.01987 14.1319C0.413413 15.5942 0.253999 17.2034 0.56179 18.7562L3.11217 18.2507ZM3.42151 15.1279C3.83105 14.1405 4.52407 13.2966 5.41304 12.7029L3.96904 10.5407C2.65258 11.4199 1.62632 12.6696 1.01987 14.1319L3.42151 15.1279ZM5.41304 12.7029C6.30202 12.1092 7.34707 11.7923 8.41608 11.7923L8.41608 9.19229C6.83304 9.19229 5.28549 9.66154 3.96904 10.5407L5.41304 12.7029ZM8.41608 11.7923H8.82622V9.19229H8.41608V11.7923ZM7.52622 10.4923V13.7976H10.1262V10.4923H7.52622ZM8.82622 12.4976H8.41608V15.0976H8.82622V12.4976ZM8.49319 12.4999C7.8501 12.4617 7.20598 12.5553 6.6004 12.7751L7.48751 15.2191C7.75992 15.1202 8.04968 15.0781 8.33897 15.0953L8.49319 12.4999ZM6.6004 12.7751C5.99484 12.9949 5.4406 13.3362 4.97174 13.7781L6.75486 15.6703C6.96577 15.4715 7.2151 15.318 7.48751 15.2191L6.6004 12.7751ZM4.97174 13.7781C4.50286 14.2199 4.12933 14.7529 3.87401 15.3444L6.26107 16.3749C6.37595 16.1088 6.54398 15.869 6.75486 15.6703L4.97174 13.7781ZM3.87401 15.3444C3.61868 15.9358 3.48694 16.5732 3.48694 17.2175H6.08694C6.08694 16.9277 6.1462 16.641 6.26107 16.3749L3.87401 15.3444ZM3.48694 17.2175C3.48694 17.8617 3.61868 18.4992 3.87401 19.0906L6.26107 18.0601C6.1462 17.794 6.08694 17.5073 6.08694 17.2175H3.48694ZM3.87401 19.0906C4.12933 19.682 4.50286 20.2151 4.97174 20.6569L6.75486 18.7647C6.54398 18.566 6.37595 18.3262 6.26107 18.0601L3.87401 19.0906ZM4.97174 20.6569C5.44061 21.0987 5.99485 21.44 6.6004 21.6598L7.48751 19.2158C7.21508 19.117 6.96576 18.9634 6.75486 18.7647L4.97174 20.6569ZM6.6004 21.6598C7.20596 21.8796 7.85008 21.9733 8.49319 21.9351L8.33897 19.3397C8.0497 19.3569 7.75994 19.3147 7.48751 19.2158L6.6004 21.6598ZM8.39729 21.9373C9.65359 21.9554 10.8671 21.4813 11.7784 20.6164L9.9885 18.7306C9.56975 19.128 9.01214 19.3459 8.43488 19.3375L8.39729 21.9373ZM11.7784 20.6164C12.6897 19.7514 13.2264 18.5642 13.2738 17.3087L10.6756 17.2107C10.6538 17.7876 10.4072 18.3331 9.9885 18.7306L11.7784 20.6164ZM13.2747 17.2597V1.84302H10.6747V17.2597H13.2747ZM11.9747 3.14302H15.1352V0.543018H11.9747V3.14302ZM13.8423 1.97813C14.0176 3.65604 14.7776 5.21878 15.9893 6.3927L17.7985 4.5254C17.0252 3.77617 16.5401 2.77878 16.4282 1.70791L13.8423 1.97813ZM15.9893 6.3927C17.2009 7.56662 18.7868 8.2769 20.4694 8.39913L20.6578 5.80596C19.5839 5.72795 18.5717 5.27464 17.7985 4.5254L15.9893 6.3927ZM19.2636 7.10255V10.7818H21.8636V7.10255H19.2636Z" fill="black" mask="url(#path-1-outside-1_1_195)"/>
</svg>
