<svg width="28" height="20" viewBox="0 0 28 20" fill="none" xmlns="http://www.w3.org/2000/svg">
<path d="M27.0348 6.55639C27.0348 5.07837 26.4476 3.66089 25.4025 2.61577C24.3574 1.57066 22.9399 0.983521 21.4619 0.983521H7.17249C5.69448 0.983521 4.27696 1.57066 3.23185 2.61577C2.18673 3.66089 1.59961 5.07837 1.59961 6.55639V13.193C1.59961 13.9249 1.74375 14.6495 2.02382 15.3257C2.30388 16.0018 2.71436 16.6161 3.23185 17.1336C3.74934 17.6511 4.3637 18.0616 5.03983 18.3417C5.71596 18.6217 6.44065 18.7659 7.17249 18.7659H21.4619C22.1937 18.7659 22.9184 18.6217 23.5945 18.3417C24.2706 18.0616 24.885 17.6511 25.4025 17.1336C25.92 16.6161 26.3305 16.0018 26.6105 15.3257C26.8906 14.6495 27.0348 13.9249 27.0348 13.193V6.55639ZM18.6516 10.3669L12.3008 13.5423C12.0467 13.6693 11.2053 13.5423 11.2053 13.2089V6.71516C11.2053 6.42937 12.0626 6.23885 12.3167 6.38174L18.4294 9.71593C18.6358 9.85883 18.9056 10.2399 18.6516 10.3986V10.3669Z" fill="white" stroke="black" stroke-width="1.3" stroke-linejoin="round"/>
</svg>
